<?xml version="1.0" standalone="no"?>
<!DOCTYPE svg PUBLIC "-//W3C//DTD SVG 20010904//EN"
 "http://www.w3.org/TR/2001/REC-SVG-20010904/DTD/svg10.dtd">
<svg version="1.0" xmlns="http://www.w3.org/2000/svg"
 width="576.000000pt" height="86.000000pt" viewBox="0 0 576.000000 86.000000"
 preserveAspectRatio="xMidYMid meet">

<g transform="translate(0.000000,86.000000) scale(0.100000,-0.100000)"
fill="#000000" stroke="none">
<path d="M4260 775 c0 -4 21 -45 46 -92 43 -78 66 -104 81 -90 10 10 -93 182
-111 185 -9 2 -16 0 -16 -3z"/>
<path d="M4645 739 c-10 -15 3 -25 16 -12 7 7 7 13 1 17 -6 3 -14 1 -17 -5z"/>
<path d="M4750 671 c0 -43 5 -72 13 -79 12 -10 422 -15 460 -5 13 3 17 15 17
59 0 40 -4 54 -14 54 -11 0 -16 -14 -18 -47 -3 -46 -4 -48 -35 -51 -32 -3 -33
-2 -33 37 0 34 -3 41 -20 41 -17 0 -20 -7 -20 -40 0 -39 -1 -40 -35 -40 -33 0
-35 2 -35 35 0 27 -4 35 -18 35 -13 0 -17 -8 -17 -32 0 -33 0 -33 -50 -33
l-50 0 -3 38 c-2 23 -8 37 -17 37 -9 0 -15 -14 -17 -37 -3 -35 -6 -38 -35 -41
l-33 -3 0 70 c0 64 -2 71 -20 71 -18 0 -20 -7 -20 -69z"/>
<path d="M4840 720 c0 -5 7 -10 15 -10 8 0 15 5 15 10 0 6 -7 10 -15 10 -8 0
-15 -4 -15 -10z"/>
<path d="M4890 720 c0 -5 4 -10 9 -10 6 0 13 5 16 10 3 6 -1 10 -9 10 -9 0
-16 -4 -16 -10z"/>
<path d="M5616 691 c-5 -7 3 -11 21 -11 41 0 66 -21 61 -51 l-3 -24 -142 -3
-143 -3 0 30 c0 39 -23 61 -64 61 -39 0 -56 -15 -56 -51 0 -30 31 -59 63 -59
10 0 15 -4 12 -10 -3 -5 -19 -10 -36 -10 -19 0 -29 -5 -29 -15 0 -18 12 -19
63 -4 20 5 37 16 37 24 0 12 30 15 163 17 l162 3 3 41 c2 27 -2 45 -12 53 -21
18 -92 26 -100 12z m-246 -50 c0 -37 -13 -46 -34 -25 -27 26 -19 54 16 54 13
0 18 -8 18 -29z"/>
<path d="M4608 679 c-12 -6 -18 -22 -18 -44 l0 -35 -76 0 c-47 0 -73 -4 -69
-10 8 -13 221 -13 246 0 21 12 25 50 9 81 -12 21 -62 26 -92 8z m62 -44 c0
-38 -10 -44 -34 -19 -19 19 -20 26 -4 42 23 23 38 13 38 -23z"/>
<path d="M5625 549 c-10 -15 1 -23 20 -15 9 3 13 10 10 16 -8 13 -22 13 -30
-1z"/>
<path d="M4390 525 c0 -11 32 -70 48 -87 11 -14 31 -18 77 -18 67 0 81 8 87
50 6 49 78 34 78 -16 0 -13 9 -28 20 -34 13 -7 138 -10 372 -8 l353 3 3 48 c3
41 1 47 -17 47 -16 0 -20 -8 -23 -37 -3 -36 -5 -38 -38 -38 -32 0 -35 3 -38
33 -2 23 -8 32 -22 32 -14 0 -20 -9 -22 -32 -3 -29 -7 -33 -35 -36 -31 -3 -33
-1 -33 27 0 26 -4 31 -24 31 -19 0 -25 -6 -28 -27 l-3 -28 -204 -3 c-215 -3
-231 0 -231 43 0 34 -23 46 -81 43 -50 -3 -53 -5 -61 -35 -8 -31 -11 -33 -51
-33 -40 0 -45 3 -66 40 -14 25 -29 40 -42 40 -10 0 -19 -2 -19 -5z"/>
<path d="M5486 494 c-9 -8 -16 -21 -16 -27 0 -25 32 -57 56 -57 26 0 34 -19 9
-21 -31 -3 -35 -4 -37 -14 -5 -17 42 -17 68 -1 20 14 24 24 24 70 0 40 -4 55
-16 60 -29 11 -72 6 -88 -10z m72 -28 c5 -24 -10 -38 -31 -30 -17 6 -23 35
-10 48 12 12 38 1 41 -18z"/>
<path d="M5688 448 c-3 -37 -7 -45 -35 -58 -18 -8 -33 -19 -33 -24 0 -12 68 0
86 15 20 16 19 109 0 109 -10 0 -16 -14 -18 -42z"/>
<path d="M4480 382 c0 -14 11 -21 26 -15 8 3 11 9 8 14 -7 11 -34 12 -34 1z"/>
<path d="M4532 378 c5 -15 28 -18 29 -3 0 6 -7 12 -17 13 -10 3 -15 -1 -12
-10z"/>
<path d="M4345 280 c-35 -69 -35 -70 -13 -70 18 0 31 16 61 70 l37 70 -25 0
c-21 0 -30 -11 -60 -70z"/>
<path d="M5172 305 c0 -16 2 -22 5 -12 2 9 2 23 0 30 -3 6 -5 -1 -5 -18z"/>
<path d="M5302 280 c0 -14 2 -19 5 -12 2 6 2 18 0 25 -3 6 -5 1 -5 -13z"/>
<path d="M5661 284 c0 -11 3 -14 6 -6 3 7 2 16 -1 19 -3 4 -6 -2 -5 -13z"/>
</g>
</svg>
